<svg xmlns="http://www.w3.org/2000/svg" viewBox="0 0 600 200" fill="none">
  <!-- Bottle cap circle (grey) -->
  <g transform="translate(100,100)">
    <!-- Outer jagged cap ring -->
    <path d="M0,-90 C8,-90 12,-96 18,-96 C24,-96 26,-88 32,-86 C38,-84 42,-90 48,-86 C54,-82 54,-74 60,-70 C66,-66 72,-70 76,-64 C80,-58 78,-50 82,-44 C86,-38 92,-38 94,-30 C96,-22 92,-16 94,-8 C96,0 102,4 102,12 C102,20 96,24 94,32 C92,40 96,44 94,52 C92,60 86,62 82,68 C78,74 80,80 76,86 C72,92 66,90 60,94 C54,98 54,106 48,108 C42,110 38,106 32,108 C26,110 24,118 18,118 C12,118 8,112 0,112 C-8,112 -12,118 -18,118 C-24,118 -26,110 -32,108 C-38,106 -42,110 -48,108 C-54,106 -54,98 -60,94 C-66,90 -72,92 -76,86 C-80,80 -78,74 -82,68 C-86,62 -92,60 -94,52 C-96,44 -92,40 -94,32 C-96,24 -102,20 -102,12 C-102,4 -96,0 -94,-8 C-92,-16 -96,-22 -94,-30 C-92,-38 -86,-38 -82,-44 C-78,-50 -80,-58 -76,-64 C-72,-70 -66,-66 -60,-70 C-54,-74 -54,-82 -48,-86 C-42,-90 -38,-84 -32,-86 C-26,-88 -24,-96 -18,-96 C-12,-96 -8,-90 0,-90 Z" fill="#999" stroke="#888" stroke-width="1" transform="translate(0,-12) scale(0.92)"/>
    <!-- White inner circle -->
    <circle cx="0" cy="-2" r="72" fill="white"/>
    <!-- Red rampant lion (simplified heraldic shape) -->
    <g transform="translate(-28,-48) scale(0.55)" fill="#E03028">
      <path d="M55,10 C50,5 42,8 38,4 C35,1 38,-8 32,-12 C28,-15 22,-10 18,-14 C14,-18 18,-28 12,-32 C8,-35 2,-28 -2,-32 L-2,-28 C4,-22 -2,-18 2,-12 C6,-6 14,-8 16,-2 C18,4 10,8 14,16 C16,20 22,18 24,24 C26,30 20,34 24,38 C26,42 30,40 34,44 C36,46 34,52 38,52 L42,48 C38,44 42,40 40,36 C38,32 32,34 30,28 C28,22 34,18 32,14 C30,10 24,12 24,6 C24,0 32,-4 30,-10 C28,-14 22,-12 22,-18 C22,-24 30,-24 28,-30 L32,-26 C32,-18 24,-18 26,-12 C28,-6 36,-8 36,-2 C36,4 28,8 30,14 C32,20 38,18 40,24 C42,30 36,34 38,38 C40,42 44,42 46,44 L50,40 C46,38 44,34 46,28 C48,22 54,22 54,16 Z"/>
      <path d="M20,44 C16,42 12,46 8,42 C4,38 8,32 4,28 C0,24 -6,28 -10,24 C-14,20 -10,12 -14,8 L-18,12 C-12,18 -8,14 -4,20 C0,26 -6,30 -2,36 C2,42 8,38 12,42 C16,46 12,54 18,56 L20,52 Z"/>
      <path d="M-14,8 C-18,4 -24,8 -28,4 C-32,0 -28,-8 -32,-12 L-36,-8 C-30,-2 -26,2 -22,6 C-18,10 -12,6 -10,12 Z"/>
      <!-- Tail -->
      <path d="M-2,-32 C-6,-36 -12,-32 -16,-36 C-20,-40 -16,-48 -20,-52 C-24,-56 -30,-50 -34,-54 C-38,-58 -34,-66 -38,-68 C-42,-62 -38,-56 -34,-52 C-30,-48 -24,-52 -22,-46 C-20,-40 -24,-34 -20,-30 C-16,-26 -8,-30 -4,-26 Z"/>
    </g>
  </g>
  <!-- Text: "Boissons" in red -->
  <text x="220" y="95" font-family="Arial, Helvetica, sans-serif" font-size="58" font-weight="700" fill="#E03028" letter-spacing="1">Boissons</text>
  <!-- Text: "du Cameroun" in grey -->
  <text x="220" y="145" font-family="Arial, Helvetica, sans-serif" font-size="42" font-weight="400" fill="#808080" letter-spacing="2">du Cameroun</text>
  <!-- Yellow dot on the i -->
  <circle cx="328" cy="62" r="5" fill="#F5A623"/>
</svg>
