<svg viewBox="-180 -180 360 360" xmlns="http://www.w3.org/2000/svg">
  <circle r="180" fill="#565D6B"/>
  <circle r="144" fill="#ffffff"/>
  <g fill="#E2263A" transform="translate(-52 -82) scale(0.86)">
    <path d="M40 22 C36 24 35 28 37 31 C34 30 31 32 32 35 C33 37 36 37 37 36 C36 39 38 41 40 41 L40 52 C38 54 37 57 38 60 C36 61 35 64 37 66 C35 67 34 70 36 72 L40 72 C40 74 41 76 43 76 C42 73 43 71 44 70 L44 60 C46 62 49 62 50 60 C52 64 56 66 60 66 C62 70 63 73 62 76 L66 76 C68 74 67 71 66 69 C68 68 69 65 67 63 C69 61 69 58 66 57 C68 55 67 52 64 52 L56 50 C58 47 58 43 55 41 C58 40 60 37 58 34 C60 32 59 29 56 29 L48 31 C48 27 46 23 42 22 Z" transform="scale(2.4)"/>
  </g>
</svg>
