<svg viewBox="-180 -180 360 360" xmlns="http://www.w3.org/2000/svg">
  <path fill="#565D6B" d="M -22.1 -146.3 Q -12.3 -164.5 0.0 -170.0 Q 12.3 -164.5 22.1 -146.3 Q 36.7 -160.9 50.1 -162.4 Q 60.3 -153.6 64.2 -133.3 Q 82.5 -142.9 95.8 -140.5 Q 102.9 -129.0 100.7 -108.5 Q 121.0 -112.2 132.9 -106.0 Q 136.3 -92.9 128.2 -74.0 Q 148.7 -71.6 158.2 -62.1 Q 157.7 -48.6 144.3 -32.9 Q 163.2 -24.6 169.5 -12.7 Q 165.0 0.0 147.6 11.1 Q 163.2 24.6 165.7 37.8 Q 157.7 48.6 137.8 54.1 Q 148.7 71.6 147.2 85.0 Q 136.3 92.9 115.7 92.3 Q 121.0 112.2 115.6 124.6 Q 102.9 129.0 83.4 122.3 Q 82.5 142.9 73.8 153.2 Q 60.3 153.6 43.6 141.4 Q 36.7 160.9 25.3 168.1 Q 12.3 164.5 0.0 148.0 Q -12.3 164.5 -25.3 168.1 Q -36.7 160.9 -43.6 141.4 Q -60.3 153.6 -73.8 153.2 Q -82.5 142.9 -83.4 122.3 Q -102.9 129.0 -115.6 124.6 Q -121.0 112.2 -115.7 92.3 Q -136.3 92.9 -147.2 85.0 Q -148.7 71.6 -137.8 54.1 Q -157.7 48.6 -165.7 37.8 Q -163.2 24.6 -147.6 11.1 Q -165.0 0.0 -169.5 -12.7 Q -163.2 -24.6 -144.3 -32.9 Q -157.7 -48.6 -158.2 -62.1 Q -148.7 -71.6 -128.2 -74.0 Q -136.3 -92.9 -132.9 -106.0 Q -121.0 -112.2 -100.7 -108.5 Q -102.9 -129.0 -95.8 -140.5 Q -82.5 -142.9 -64.2 -133.3 Q -60.3 -153.6 -50.1 -162.4 Q -36.7 -160.9 -22.1 -146.3 Z"/>
  <circle r="130" fill="#ffffff"/>
  <g fill="#C8282A" transform="translate(8 5) scale(1.18)">
    <path d="M -52,15 C -65,5 -72,-15 -60,-30 C -52,-40 -38,-38 -32,-28 C -26,-18 -34,-8 -28,0 C -22,8 -10,4 -4,12"/>
    <path d="M -4,12 C 2,20 0,35 -8,48 C -16,60 -24,65 -20,78 C -16,88 -6,92 2,88 C 10,84 12,74 8,65 C 18,70 28,72 32,65 C 36,58 30,48 22,44 C 30,38 35,28 30,18 C 26,10 16,8 8,12 C 4,14 0,13 -4,12 Z"/>
    <path d="M -20,78 C -26,88 -28,100 -22,108 C -16,116 -6,114 -4,106 C -2,98 -8,92 2,88"/>
    <path d="M -22,108 C -26,112 -32,112 -34,108 C -30,104 -22,106 -22,108 Z"/>
    <path d="M -4,106 C -2,112 4,114 8,110 C 6,106 0,104 -4,106 Z"/>
    <path d="M 8,12 C 12,4 18,-4 26,-2 C 32,0 35,8 32,15"/>
    <ellipse cx="38" cy="-18" rx="28" ry="26"/>
    <ellipse cx="44" cy="-16" rx="16" ry="14" fill="#C8282A"/>
    <path d="M 30,18 C 38,10 50,5 58,12 C 64,18 62,28 55,32 C 62,36 68,44 62,50 C 56,56 46,52 44,44"/>
    <path d="M 55,32 C 62,30 68,26 66,20 C 60,18 54,24 55,32 Z"/>
    <path d="M 22,44 C 28,52 26,64 18,68 C 12,72 4,68 4,60 C 10,64 18,60 18,52"/>
    <path d="M 18,68 C 16,74 10,78 6,74 C 8,68 16,66 18,68 Z"/>
  </g>
</svg>
